<svg xmlns="http://www.w3.org/2000/svg" width="1200" height="1200"><path d="M0 0 C396 0 792 0 1200 0 C1200 396 1200 792 1200 1200 C804 1200 408 1200 0 1200 C0 804 0 408 0 0 Z " fill="#FEF5E6" transform="translate(0,0)"></path><path d="M0 0 C0.66 0 1.32 0 2 0 C2.41137207 0.72251953 2.82274414 1.44503906 3.24658203 2.18945312 C11.02766251 15.84894899 18.83876716 29.4881392 26.77783203 43.05664062 C31.04653955 50.35510406 35.28036097 57.67306854 39.5 65 C44.30844723 73.34802448 49.13897095 81.68248303 54 90 C59.49730007 99.40621547 64.95060135 108.83709094 70.38793945 118.27807617 C74.04652945 124.62637306 77.72181084 130.96441488 81.42114258 137.2890625 C82.59992004 139.30675152 83.77553494 141.32629147 84.94799805 143.34765625 C87.56236303 147.85322477 90.19451467 152.33793739 92.9453125 156.76171875 C103.29711056 173.6869262 110.40449774 192.15964713 117.94610596 210.44970703 C119.60792725 214.47110861 121.28602158 218.48567252 122.96484375 222.5 C124.8480161 227.00330197 126.72907883 231.50736947 128.59448242 236.01806641 C131.55432492 243.17133655 134.55108995 250.30350133 137.6484375 257.3984375 C143.11072639 269.96072802 148.24615136 282.21870189 150.875 295.73828125 C151.77645181 300.28867021 153.01160661 304.72848147 154.27514648 309.18847656 C158.10356479 322.84548261 161.57516558 336.59182135 165.02643681 350.34820461 C166.14745 354.81601925 167.2768033 359.28130749 168.42797852 363.74145508 C174.15102229 385.94208745 178.54636429 407.6490015 180.58596802 430.49002075 C181.01564826 435.26240776 181.51591854 440.02630247 182.02514648 444.79077148 C182.84124045 452.4461495 183.63325201 460.1035556 184.40534878 467.76349545 C184.92767811 472.94442435 185.45839587 478.12438897 185.99590588 483.30376434 C186.35094547 486.74412539 186.69812007 490.18525133 187.04342079 493.62660217 C187.20437089 495.21783013 187.36801735 496.80878877 187.53496361 498.3993988 C189.9471393 521.45133067 190.16034683 544.61527021 190.16796875 567.7734375 C190.17120251 570.16053281 190.17456793 572.54762795 190.17805481 574.9347229 C190.18398019 579.90440324 190.18590185 584.87406638 190.18530273 589.84375 C190.18522196 594.83239404 190.19209809 599.82094529 190.20581055 604.80957031 C190.27338574 629.8192014 190.23136364 654.80017168 189.11328125 679.7890625 C189.07433432 680.6785899 189.03538738 681.56811729 188.99526024 682.48460007 C188.44997173 694.55875077 187.46869481 706.56265112 186.24446201 718.5860939 C185.91462716 721.84300218 185.59933104 725.10126332 185.28434753 728.35963631 C183.41848553 747.56321989 181.22533566 766.67077902 178.45703125 785.76757812 C177.6082197 791.77092476 176.8583533 797.78796095 176.12670898 803.80664062 C175.25466499 810.71874374 174.0508087 817.56313467 172.81860352 824.41796875 C172.13145099 828.24240665 171.47144753 832.07092376 170.82032776 835.90164185 C166.78737723 859.59153888 161.80955259 882.68149787 154.84545898 905.70751953 C153.04904888 911.68082251 151.49033759 917.70941339 149.9375 923.75 C148.16000516 930.65907905 146.28117975 937.49096104 144.11328125 944.2890625 C142.53335305 949.55548983 141.15565765 954.87232061 139.75 960.1875 C136.72269883 971.59195357 133.34705693 982.86112534 129.82421875 994.12109375 C128.37049516 998.77109353 127.00883867 1003.4359173 125.6875 1008.125 C123.4377868 1015.95891336 120.80929296 1023.67112525 118.18008423 1031.38397217 C117.69055327 1032.82011472 117.20270003 1034.25683039 116.71664429 1035.69415283 C109.8509693 1055.95415224 109.8509693 1055.95415224 105.88061523 1058.19750977 C104.94971069 1058.59474243 104.94971069 1058.59474243 104 1059 C101.98813229 1054.83009256 101.6940599 1051.08909922 101.69921875 1046.5390625 C101.69380066 1045.78525299 101.68838257 1045.03144348 101.68280029 1044.25479126 C101.67110754 1041.71136137 101.67785289 1039.16843431 101.6875 1036.625 C101.68799347 1035.73727905 101.68848694 1034.84955811 101.68899536 1033.93493652 C101.72804039 1010.41586765 103.02609416 986.93397098 104.24609375 963.453125 C104.31138275 962.19593155 104.37667175 960.9387381 104.44393921 959.64344788 C104.95370946 949.8529173 104.95370946 949.8529173 105.16281128 946.00015259 C106.00616632 930.3935795 106.19898303 914.81564454 106.1875 899.1875 C106.18756042 897.91285889 106.18762085 896.63821777 106.18768311 895.32495117 C106.17183555 871.60374734 105.48127688 847.95359427 104.26464844 824.265625 C104.06006555 820.27002905 103.88084436 816.27420094 103.71859741 812.27668762 C102.68237637 787.0407793 99.81489779 761.99011533 97.05319214 736.89451599 C96.30312799 730.01332325 95.64294657 723.13105831 95.0546875 716.234375 C93.8768041 702.65607993 92.10748023 689.14616335 90.3873291 675.62835693 C89.95445026 672.21941086 89.52636132 668.8098636 89.09765625 665.40039062 C87.46666608 652.44704404 85.80819034 639.49738669 84.13019753 626.55005074 C82.82877616 616.50815915 81.55295823 606.46564857 80.37988281 596.40795898 C77.01883955 567.6665874 70.67792468 540.0122733 62.640625 512.22949219 C61.93497497 509.77370099 61.24893444 507.31279124 60.5625 504.8515625 C50.35271356 468.63774025 37.68615411 433.20631625 22 399 C21.52304687 397.95956543 21.04609375 396.91913086 20.5546875 395.84716797 C13.8608874 381.35213761 6.47952891 367.39751536 -1.51855469 353.58398438 C-3.25619504 350.5531364 -4.93160295 347.49186164 -6.60009766 344.42260742 C-18.06203431 323.38958864 -31.01701781 303.11674688 -44 283 C-44.37268005 282.42149292 -44.74536011 281.84298584 -45.1293335 281.24694824 C-52.52121586 269.7746408 -59.99651922 258.3581209 -67.50585938 246.96240234 C-69.36760822 244.13622091 -71.22680376 241.30837092 -73.0859375 238.48046875 C-79.98417173 228.00157604 -86.96859398 217.5897124 -94.08447266 207.25732422 C-94.79401093 206.21315338 -94.79401093 206.21315338 -95.5178833 205.14788818 C-96.56746869 203.62682573 -97.64424476 202.12436153 -98.73944092 200.63580322 C-99.29899475 199.8550946 -99.85854858 199.07438599 -100.43505859 198.27001953 C-100.94974701 197.57103546 -101.46443542 196.87205139 -101.99472046 196.15188599 C-103.3068569 193.34314682 -102.89867724 191.91898827 -102 189 C-101.08980055 187.04583985 -100.10775801 185.1244225 -99.078125 183.23046875 C-98.47145996 182.10672852 -97.86479492 180.98298828 -97.23974609 179.82519531 C-96.57662007 178.61256312 -95.91336821 177.39999972 -95.25 176.1875 C-94.56662164 174.92708208 -93.88384945 173.66633533 -93.20166016 172.40527344 C-91.80957924 169.83445687 -90.41382059 167.26569441 -89.01464844 164.69873047 C-87.19291262 161.35628548 -85.37997716 158.00915558 -83.5703125 154.66015625 C-80.91611188 149.74924204 -78.25563601 144.84176875 -75.59277344 139.93554688 C-72.8923542 134.95856329 -70.19640497 129.97915919 -67.5 125 C-64.26281747 119.02284132 -61.02515798 113.04594355 -57.78515625 107.0703125 C-52.15291745 96.68061309 -46.53501881 86.28345065 -40.9375 75.875 C-36.64987286 67.90292338 -32.34211104 59.94253239 -28 52 C-18.55744248 34.72594496 -9.23737376 17.38462267 0 0 Z " fill="#602234" transform="translate(560,80)"></path></svg>